Coordinates																																									
version=1																																									
nRows=11																																									
nColumns=42																																									
inDegrees=yes																																									
																																									
"Units are S.I. units (second, meters, Newtons, ...)"																																									
"If the header above contains a line with 'inDegrees', this indicates whether rotational values are in degrees (yes) or radians (no)."																																									
																																									
endheader																																									
time	pelvis_tilt	pelvis_list	pelvis_rotation	pelvis_tx	pelvis_ty	pelvis_tz	hip_flexion_r	hip_adduction_r	hip_rotation_r	knee_angle_r	knee_adduction_r	knee_angle_r_beta	ankle_angle_r	subtalar_angle_r	mtp_angle_r	hip_flexion_l	hip_adduction_l	hip_rotation_l	knee_angle_l	knee_adduction_l	knee_angle_l_beta	ankle_angle_l	subtalar_angle_l	mtp_angle_l	lumbar_extension	lumbar_bending	lumbar_rotation	arm_flex_r	arm_add_r	arm_rot_r	elbow_flex_r	pro_sup_r	wrist_flex_r	wrist_dev_r	arm_flex_l	arm_add_l	arm_rot_l	elbow_flex_l	pro_sup_l	wrist_flex_l	wrist_dev_l
2.68	0	0	0	0	0	0	6.15773267	-5.62135689	2.36754982	14.02808447	1.1811887	0.24483626	-39.26421763	0	0	8.32503776	-6.55436657	-7.14247499	20.92781737	-3.56903342	0.36525932	-29.40297697	0	0	-2.19408042	4.57858156	3.00157813	58.9277009	-12.91411093	27.72127855	74.95277296	102.1307563	0	0	68.45424551	-12.86304123	44.77851126	94.4291958	83.46432154	0	0
2.69	0	0	0	0	0	0	2.54228853	-5.57281407	4.84251434	6.72944246	0.95435054	0.11745093	-39.62622121	0	0	4.65112615	-6.45001542	-6.71900379	14.21104744	-2.75422213	0.24802957	-36.68316989	0	0	-0.98708242	4.68938403	3.83087427	52.54006726	-11.63290142	25.2198076	71.46744179	102.2271021	0	0	62.41846503	-13.10343638	44.38509195	94.92762893	83.54309358	0	0
2.7	0	0	0	0	0	0	0.52705878	-5.55363364	5.41931487	1.20978813	0.26497649	0.02111479	-39.68918392	0	0	2.33782042	-6.43225841	-7.17980878	8.81318243	-2.16397776	0.15381905	-39.12637324	0	0	0.40241928	4.75016468	4.49271598	46.88557065	-10.03410966	22.6533278	67.18668292	102.2665088	0	0	56.41977328	-13.43628867	43.77372969	95.09470209	83.61773254	0	0
2.71	0	0	0	0	0	0	2.02613086	-5.6984896	3.13155935	0.19407155	0.1634846	0.00338719	-39.60764431	0	0	1.95179591	-6.20910776	-8.27014449	5.02566776	-1.70531449	0.08771445	-39.52609218	0	0	2.24382285	4.62842661	5.86203584	41.99097795	-8.62491742	19.64394212	62.52435619	101.9001782	0	0	50.49494999	-13.28033755	42.60299164	94.16049318	83.71740592	0	0
2.72	0	0	0	0	0	0	4.29942283	-5.98856598	0.57328316	0.11388302	0.89084546	0.00198763	-39.38480008	0	0	2.48972964	-6.23364133	-6.88906093	2.50000897	-0.73354904	0.04363339	-39.64226046	0	0	3.80873903	4.66060915	6.25694137	38.30117032	-6.74761672	16.94301793	56.85399758	103.5257636	0	0	44.35577228	-13.83822586	40.63120566	93.43527373	86.39167689	0	0
2.73	0	0	0	0	0	0	5.80623993	-6.55517917	-2.89934363	0.09555283	1.98331115	0.00166771	-39.3169148	0	0	3.13566413	-6.07662984	-5.21024249	1.48974933	0.22868264	0.02600103	-39.63292015	0	0	4.19901565	4.39017202	6.97700574	34.83497854	-5.57797005	13.33391732	52.21176127	102.6131723	0	0	39.41391578	-13.63275421	39.28876051	91.5374164	85.9431295	0	0
2.74	0	0	0	0	0	0	6.14370796	-7.19122146	-6.59651751	0.09566218	3.08213698	0.00166962	-39.43753907	0	0	3.35220953	-5.73948042	-3.88918726	1.56250136	0.8187189	0.02727079	-39.61768119	0	0	3.04931517	4.11040988	7.45016475	32.28855964	-4.57000778	9.87452611	47.54477236	101.3786471	0	0	35.17250631	-13.6163144	37.97853378	89.34658281	85.10143849	0	0
2.75	0	0	0	0	0	0	5.74730987	-7.48311187	-8.63149053	0.1050033	3.55034042	0.00183265	-39.46194692	0	0	3.48188501	-5.22262868	-3.60268211	2.67815057	0.78473092	0.04674255	-39.64015325	0	0	0.88449191	3.84741256	7.91131583	30.17550235	-4.1012465	6.59531768	43.47052138	99.84758811	0	0	31.27544508	-13.06152183	35.58536935	86.66781573	84.13643327	0	0
2.76	0	0	0	0	0	0	5.24710067	-7.08057902	-8.66420531	0.12257391	3.35026059	0.00213932	-39.44762636	0	0	3.6307307	-5.14303613	-4.62023221	4.42245508	0.6904629	0.0771864	-39.65348689	0	0	-1.7585499	3.71695775	8.86610859	28.29287573	-4.29321955	4.18234484	39.89793932	98.43600145	0	0	28.34174055	-11.92743014	33.22045678	82.50473143	83.38908912	0	0
2.77	0	0	0	0	0	0	4.43601031	-6.56010185	-7.7200208	0.14795947	2.82098596	0.00258238	-39.47315378	0	0	3.53057924	-5.0277542	-6.60980763	6.26816108	0.25044201	0.10940005	-39.65291158	0	0	-4.92692915	3.57764421	9.48359686	26.67972558	-4.59028751	2.83353872	37.47465847	90.87082557	0	0	25.8854116	-11.07926845	31.06782528	78.73909088	79.98937295	0	0
2.78	0	0	0	0	0	0	3.84820325	-6.04305553	-6.76707621	0.19032452	2.23413971	0.00332179	-39.50849623	0	0	3.69659678	-5.01955292	-7.42295835	7.85041155	0.00340304	0.13701553	-39.63408002	0	0	-7.89785259	3.31218605	9.67051944	24.91864286	-5.19035377	2.04300078	35.32560522	90.20517117	0	0	23.73337525	-10.45393504	29.05198647	74.69983595	79.09339784	0	0
